<?xml version="1.0" encoding="UTF-8"?>
<svg version="1.1" viewBox="0 0 1555 1600" width="1280" height="1280" xmlns="http://www.w3.org/2000/svg">
<path transform="translate(737,91)" d="m0 0h46l33 2 24 3 28 7 33 11 22 9 21 10 21 13 16 12 18 13 14 12 16 16 5 7-2 5-8 8-11 14-9 9-7 8-14 14-7 8-32 32-8 7-35 35h-2v2h-2l-2 4-8 7-42 42h-2l-2 4-34 34-7 8-110 110-2 3h-2v2l-8 7-127 127-8 7-5 5-7 6-7 8-10 9-6 7-5 5-5 10-2 1-5-5-13-12-14-15-8-7-14-15-13-13-7-8-21-21-7-8-25-25-7-8-39-39-3-2v-2l-4-2-31-31-6-5-48-48-3-4 1-5 9-10 9-11 52-52h2l1-3h2l2-4 8-7 64-64 5-6 7-6 1-2h2l2-4 9-8 7-8 95-95 8-7 7-7 8-7 15-13 18-13 15-9 32-17 28-13 36-12 23-6 21-3zm-240 625-2 2 4 1 1 2 1-4zm1 10 1 2z" fill="#CF6DB3"/>
<path transform="translate(1046,841)" d="m0 0 4 1 7 8 7 7 11 9 7 7 8 7 17 17 8 7 4 5 6 5 7 8 20 20 8 7 8 8 2 1v2l4 2 64 64v2h2l7 8 26 26 7 8 11 11 7 8 5 6-2 4-8 6-2-1-1-3-2 6-4 6-8 8-7 8-7 7-7 8-10 10-4 5h-2v2h-2v2h-2l-2 4 5-4 14-14 6-7h2l2-4 28-28 4-5 12-6 9 5-1 5-6 8-11 13-15 16-197 197-8 7-15 15-8 7-15 13-13 11-14 11-12 10-19 14-21 13-17 10-16 8-17 6-30 9-49 13-19 3-37 3h-43l-24-2-21-4-25-7-27-9-26-11-17-8-24-14-21-14-13-10-10-8-15-14-5-4-2-3 1-6 7-8 16-16 7-8 72-72 8-7 21-21 7-8 13-13 8-7 42-42 2-3h2l2-4h2l2-4 11-11 8-7 55-55 7-8 12-12 7-8 58-58 8-7 14-14 8-7 47-47 7-8 6-6h2v-2l8-7 4-2v-2l8-7 23-23 8-7 15-14 8-7 7-8zm184 328-102 102h3l100-100zm-103 103m-1 1-2 3 3-1zm-3 3m-1 1-1 2h2zm-2 2m-1 1m-1 1m-1 1m-1 1m-1 1m-1 1m-1 1m-1 1m-1 1m-1 1m-1 1m-1 1m-1 1m-1 1m-1 1m-1 1m-1 1m-1 1m-1 1m-1 1m-1 1m-1 1m-1 1m-1 1m-1 1m-2 1-28 28h3l27-27zm-29 29m-1 1m-1 1m-1 1m-1 1m-1 1m-1 1m-1 1m-2 1-7 7h3l6-7zm-8 8m-1 1m-1 1m-1 1m-1 1m-1 1m-1 1m-2 1-1 2 3-1z" fill="#6C98EA"/>
<path transform="translate(178,528)" d="m0 0 4 1 21 21 7 8 32 32 8 7 47 47 8 7 45 45 2 1v2l4 2v2l4 2 14 14 8 7 14 13 8 7 13 12 17 16 21 21 7 8 8 8 7 8 9 9 7 8 29 29v2l4 2 14 15 58 58 8 7 31 31 8 7 23 23 7 8 8 8 7 8 11 12 11 15 9 10-2 5-11 12-7 8-7 7-7 8-9 8-7 8-17 17-8 7-99 99-9 10-8 8-7 8-44 44-8 7-11 11-4 3-4-1-12-12-7-8-55-55-7-8-18-18-7-8-55-55-4-5-7-6-7-8-26-26-7-8-19-19-7-8-9-9-7-8-16-17-9-10-12-14-10-12-11-15-10-15-11-19-12-22-12-29-8-27-9-34-4-25-3-30v-37l4-36 5-29 11-40 6-17 11-24 12-23 10-16 11-16 12-17 8-10 15-16zm517 531-1 2 2 8v7l-1 3 5-2 3-4-4-1-1-9z" fill="#AD79E4"/>
<path transform="translate(1079,261)" d="m0 0 4 1 17 12 11 8 9 8 8 7 20 18 44 44 7 8 16 17 11 12 7 7 7 8 11 11 7 8 16 17 9 10 15 16 9 9 7 8 12 13 22 24 9 11 11 12 11 14 10 11 11 14 10 13 7 10 10 15 12 22 9 19 11 30 5 21 5 38 2 33-1 27-4 38-4 22-13 40-4 12-12 26-10 23-10 19-10 16-9 11-11 13-9 11-10 9-3 2-5-1-16-13-10-9-8-7-5-4-28-28-7-8-66-66-7-8-9-9-7-8-15-15-7-8-28-28-8-7-26-24-31-31-7-8-71-71-8-7-35-35-4-3v-2l-3-1-4-5-5-5-5-4-7-8-31-31-8-7v-2l-3-1v-2l-4-2-8-8v-2h-2l-7-8-18-18-7-8-12-13-15-15 2-4 12-6 1-4 7-8 34-34 8-7 95-95 7-8 16-17 15-15 8-7 7-7 8-7 9-9 7-8 11-9 7-6zm262 759m1 1m1 1m1 1 1 3v-3zm9 2 3 6v5l4 3-1-8-3-5zm-7 1m1 1m1 1 2 4v-3zm3 4m13 4 1 2zm-1 2m-1 3v7l2-2-1-5z" fill="#CF6DB3"/>
<path transform="translate(547,963)" d="m0 0 22 6 2 2 9 2 10 5 13 4v2l3 1 4 4 10 2 5 4 16 8 5 5 11 8 5 4 4 6v-2-6l5 4 4-2 4 2 14 15 12 14 7 10 9 10-2 5-11 12-7 8-7 7-7 8-9 8-7 8-17 17-8 7-99 99-9 10-8 8-7 8-44 44-8 7-11 11-4 3-4-1-12-12-7-8-55-55-7-8-18-18-7-8-55-55-4-5-7-6-7-8-26-26-7-8-19-19-7-8-9-9-7-8-11-12h3l3 2 4-1h2l1-7-2-2-1-9 1-8v-14l2-4 5-5-1-7-1-4-1-3h2v-3l4-1 1 1h6l7-5 8-4 4-6h3l1 2h7v-6h2v-2h2l1-2h2l1-2 5 2 4 2v-2h12v2l10-3 6 1 4 1 3-1 6 1 5-1h8l3-1 6 1 12-2 4 1 16-1 8-1 5 1 5-1 6 2h3l5 1v2l9-5 7 2 9-1 4 1 3 3 5-1 5-4h11l3-2 14-1 7 2 4-1 1-2h5v-2l8-1 9 1 5 3 5 1 2-5 5-2 9 3v3l3-2v-2h-4v-2l9-1 2-1h6l7-1zm148 96-1 2 2 8v7l-1 3 5-2 3-4-4-1-1-9z" fill="#8C84E7"/>
<path transform="translate(1254,707)" d="m0 0h18l9 1 11 1 6 1h23l4 3h36l7 3 10 1h7l5 2h10l2 1 6 1 8 3 5 3v2l4 1 7 4 9 6 5 4 6 9 3 3h2l4 4-2-5 1-5 4 1 1-3 2 1 2 8 2 33-1 27-4 38-4 22-13 40-4 12-12 26-10 23-10 19-10 16-9 11-11 13-9 11-10 9-3 2-5-1-16-13-10-9-8-7-5-4-28-28-7-8-66-66-7-8-9-9-7-8-15-15-7-8-28-28-8-7-26-24-31-31-7-8-9-9 1-10 2-5h2l1-3h2l1-4h4l1-5 3-3h3l2-4 3-4 9-2 16-5 7-2 11-6 11-2 6-2h9l13-1 25-1 15-1h18v2l15-1zm87 313m1 1m1 1m1 1 1 3v-3zm9 2 3 6v5l4 3-1-8-3-5zm-7 1m1 1m1 1 2 4v-3zm3 4m13 4 1 2zm-1 2m-1 3v7l2-2-1-5z" fill="#AD79E4"/>
<path transform="translate(1046,841)" d="m0 0 4 1 7 8 7 7 11 9 7 7 8 7 17 17 8 7 4 5 6 5 7 8 20 20 8 7 8 8 2 1v2l4 2 64 64v2h2l7 8 26 26 7 8 11 11 7 8 5 6-2 4-8 6-2-1-1-3-2 6-4 6-8 8-7 8-7 7-7 8-10 10-4 5h-2v2h-2v2h-2l-2 4-25 25-2-3-1 2-3-1-1-9-6-1-1-9-3 1v-2l-3-1-2-5-6-2-5-4v-2l-5-1 2-1v-2l-7-1-5-4h-5l-5-4-6-2-5-3v-2l-6-1-9-3-4-1h-3l-9-3-4-1-14 3-19 2h-9v-3l-20-2-24 1-4 1h-17l-9 1-5-1-9 1-19 1-16 2-9 3h-7l-3 1h-12l-2-5h-5l1 3-5 1-4-5-5-2v-2l-5-2-3-3-8-1-2-1v-2h-2v-2l-8 2-8-4-2-3v-3l-9 1h-3l5 2-5 5-3-3-5-2-1-5-2-2-3 2-4-1 1-1-7 1-1 2-2-1-1-3-7 1v-5l-11 1-5 2v3l-4 1-2-3 7-7 7-8 12-12 7-8 58-58 8-7 14-14 8-7 47-47 7-8 6-6h2v-2l8-7 4-2v-2l8-7 23-23 8-7 15-14 8-7 7-8z" fill="#8C84E7"/>
<path transform="translate(498,1120)" d="m0 0 9 1h10l8 1 6 2 13 5 9 8 5-3 4 1 4 2 1 3 4 3h7l2 3v11l6 2 3 7 1 2 1-2 5 1 2 1v6l2-1-1-3 2-2 5 2 4 2v6l9-3-1 4-71 71-9 10-8 8-7 8-44 44-8 7-11 11-4 3-4-1-12-12-7-8-55-55-7-8-18-18-7-8-55-55-5-9v-2h-2v-2l-3-1-1-5h-2l-1-9 5-2 5 3 2 1-1-5 4 1 1 4h10l-2-7 5-2 10 1 6 1 4-3 8 1h7l5-4 5-1 3-2 9-3 7-3 5-3 10-2 14-1 12 2h5l2 2 4-1 5-1 7 2 5-1 31-2 23-2z" fill="#6C98EA"/>
<path transform="translate(178,528)" d="m0 0 4 1 21 21 7 8 32 32 8 7 47 47 8 7 44 44-4 2-4-1-13 3h-15l-9 1-6 1-4 1-6 4-17 5-4 2h-3v2l-4 1-17-1-8 3h-7l-11 2-5 3h-9l-11 5-7 3-8 2-10 5-12 2-5 2-10 5-10 2-10 9-6 2-5 4-8 5-6 5-7 11-4 6-1 3h-2l-1 5h-2l-1 4-2 4-3 1-1-5v-30l4-36 5-29 11-40 6-17 11-24 12-23 10-16 11-16 12-17 8-10 15-16z" fill="#CF6DB3"/>
<path transform="translate(1046,841)" d="m0 0 4 1 7 8 7 7 11 9 7 7 8 7 17 17 8 7 4 5 6 5 7 8 20 20 8 7 8 8h-3l-1 5 1 2-1 9-4-4-2-3-2 3h-5l-1-3-4-1-5-1-2 2h-8l1-5-6-1-7 1h-8l-11 4-10 6-2-4-6-1-14 7-7 2-1 3h-10v2l-11 3h-12l-4-1h-17l-7 1-7-2-9-1-13-3h-13l-12 3-10 3-3 5-10 3-14 2-5-2h-8l-3 3-2-1 15-14 44-44 7-8 6-6h2v-2l8-7 4-2v-2l8-7 23-23 8-7 15-14 8-7 7-8z" fill="#AD79E4"/>
<path transform="translate(298,553)" d="m0 0h3v2l4 1 2 3 8 3 1 3 7 2 5 3 7 4 4 1 1 4v3h2v2l4 1 7 4v2h2l2 6 5 1 1 5 3-1 2 4h2l2 5 5 2 7 3 1 2v6l5 1 1 5h3l3 6 2 5-1 2 3-1 6 3 6 2 1 6v2l4 2v2l5 4 3 3 3 5v2l5 2 3 4-1 5 4 1 1 4 5 2 1 3 7 2 1 6 4-1 1-1h5l2 2v3l9 1-2 2 4 3 5 2 2 4 4 1 1-3 2 1 2-1h7l8 4-2 7-3 4 1 7 3 1-5 5-5 10-2 1-5-5-13-12-14-15-8-7-14-15-13-13-7-8-21-21-7-8-25-25-7-8-39-39-3-2v-2l-4-2-18-18zm199 163-2 2 4 1 1 2 1-4zm1 10 1 2z" fill="#D47ED4"/>
<path transform="translate(1345,525)" d="m0 0 5 5 12 13 9 11 22 26 11 14 13 18 10 15 12 22 9 19 6 16-1 3-4-5-1-2-5-2-7-7-1-5-3-1-7-12-4-3-7-14-5-7v-2h-2v-2h-2l-1-4-4-2-2-8-4-2-6-8-3-7-4-6-8-10-1-7-1-3-5-2v-3h-2l1-8-3-1-1-3-3-1v-3l-4-2-6-7-1-5-2-5z" fill="#D37DD3"/>
<path transform="translate(1305,1099)" d="m0 0 7 3 3 2-1 5-6 8-11 13-15 16-60 60-3-1 1-2v-1l-4 1 1-3 4-4h2l2-6 3-1 2-4 4-5 4-8-3-1v-5l17-17 6-7h2l2-4 28-28 4-5z" fill="#8F88E7"/>
<path transform="translate(910,613)" d="m0 0 8 1 3 3-2 6 6-1 9 7v2h3l1 4 3 1v5l5 1 1 5 1 3 7-1 3 1 1 5 7 1 3 3 3 2v5l4 2 5 1 4 2v2l4 2 2 6 6 2 3 4-1 1 9 9 4 2-1 2 2 1 3 5 3 3v2l2 1v6l4 2 6 4-1 6v2 3l-30-30-8-7-35-35-4-3v-2l-3-1-4-5-5-5-5-4-7-8-21-21z" fill="#D37CD3"/>
<path transform="translate(437)" d="m0 0h41l-3 9-9 10-10 5-12 3h-11l-7-3-3-3 1-6 9-10z" fill="#CF6EB4"/>
<path transform="translate(122,600)" d="m0 0h2l-1 5-2 5-3 10h-2l-1 7h-2l-1 6-5 5 3 4h-2v3h-2v2h-2v2l-2 2-1 4 1 2h-2l-3 6v3l-1 1v7l-1 7-3 1 5 2-2 6-2 5-7 4-1 2 2 1h-2v10l-5 12 2 8-2 4-4 1 1-13 5-24 11-38 5-13 9-20 13-25z" fill="#D47ED3"/>
<path transform="translate(84,697)" d="m0 0h2l-1 4 2 1h-2v10l-5 12 2 8-2 4-4 1 1-13 5-24z" fill="#D583D5"/>
<path transform="translate(466,7)" d="m0 0 3 1v2h4l-2 4-7 6-1-4-9 1v-2l6-1 1-2 4-2z" fill="#E7B8E7"/>
<path transform="translate(427,11)" d="m0 0 3 3 3 7 2 3-1 1h-6l-5-4 1-6z" fill="#FDFCFD"/>
<path transform="translate(435,21)" d="m0 0h7v2l8 2v1l-6 1h-11l-4-2 5-1z" fill="#D47ED0"/>
<path transform="translate(492,733)" d="m0 0 8 6v6l-1-2-3-1-1 5h-4l-1-9 3-1z" fill="#CF6DB4"/>
<path transform="translate(495,740)" d="m0 0 6 4-1 5-3 5-4-2-1-3 1-2h2z" fill="#D787D6"/>
<path transform="translate(78,725)" d="m0 0h2l2 7-2 4-4 1v-7z" fill="#D37DD3"/>
<path transform="translate(828,506)" d="m0 0 3 4 3 6-1 3-5-7v-2l-2-1h2z" fill="#D47FD4"/>
</svg>
